<svg width="176" height="106" viewBox="0 0 176 106" xmlns="http://www.w3.org/2000/svg"><g id="Page-1" fill="none" fill-rule="evenodd"><g id="car-4" transform="translate(0 -1)" fill="#FFF"><path id="Fill-1" d="M18.18 81.115v10.05H5.766v-10.05H0v25.423h5.765V96.043H18.18v10.495H23.8V81.115z"/><path id="Fill-2" d="M170.132 106.538h5.617V81.115h-5.618z"/><g id="Group-17" transform="translate(22 .538)"><path d="M108.518 99.053s0 2.07-1.774 2.07H96.398v-15.67h10.346c1.774 0 1.774 2.07 1.774 2.07v11.53zM90.78 106h18.182c4.877 0 5.32-5.026 5.32-5.026V85.602s-.443-5.025-5.32-5.025h-18.18V106z" id="Fill-10"/><path d="M137.49 93.88v-8.426H126.7s-1.923 0-1.923 2.365v6.06h12.712zm5.764-13.304V106h-5.765v-7.39h-12.713V106h-5.616V87.08c0-6.8 6.208-6.504 6.208-6.504h17.886z" id="Fill-12"/><path id="Fill-7" d="M31.804 80.576H24.71l-6.8 10.79-6.8-10.79H4.163L15.25 96.983V106h5.616v-9.165z"/><path d="M51.61 99.053c0 1.626-.295 2.07-1.774 2.07h-10.2V80.576H34.02V106h18.477s4.73-.295 4.73-5.617V80.577H51.61v18.476z" id="Fill-3"/><path d="M79.99 106h5.765V86.193c0-5.32-4.878-5.617-4.878-5.617H62.4V106h5.765V85.454h10.05c1.48 0 1.775.444 1.775 2.07V106z" id="Fill-5"/><path d="M125.664 33.425c0-6.208-4.286-11.825-11.825-16.407-1.036-.74-1.922-.296-2.366.295-.296.444-11.234 26.015-24.093 39.91-1.477 1.625.15 1.92 2.218 1.478 21.285-4.286 36.066-14.042 36.066-25.275m-56.76 4.434c-5.616 1.034-11.085 2.955-15.372 4.58-13.894 4.88-20.398 10.053-21.728 11.235-1.774 1.478-.444 2.217 1.182 2.66 9.46 2.81 23.798 4.878 32.962 4.583 6.652-.296 10.347-7.54 11.973-10.643 6.8-14.633-5.616-13.007-9.015-12.416m-48.63 11.676c.295-.59 11.233-26.162 24.093-40.057C45.993 8 44.22 7.705 42.15 8.15 20.867 12.287 6.085 22.042 6.085 33.276c0 6.208 4.435 11.973 11.826 16.555 1.034.59 2.07.148 2.364-.296m42.57-20.693c5.617-1.035 11.086-2.956 15.373-4.582 13.894-4.877 20.397-9.903 21.728-11.085 1.774-1.626.443-2.217-1.183-2.81C89.302 7.56 74.965 5.49 65.8 5.933c-6.65.148-10.346 7.39-11.824 10.494-6.948 14.634 5.468 13.156 8.868 12.417m68.29 4.582c0 18.033-29.268 32.814-65.186 32.814C29.882 66.24.763 51.457.763 33.424.763 15.245 29.883.463 65.948.463c35.918 0 65.185 14.78 65.185 32.962" id="Fill-15"/></g></g></g></svg>