<svg width="31" height="31" viewBox="0 0 31 31" xmlns="http://www.w3.org/2000/svg"><g id="Page-1" fill="none" fill-rule="evenodd"><path d="M15.5 31C24.06 31 31 24.06 31 15.5 31 6.94 24.06 0 15.5 0 6.94 0 0 6.94 0 15.5 0 24.06 6.94 31 15.5 31zm-3.542-16.49v2.248h3.716c-.15.964-1.123 2.827-3.716 2.827-2.238 0-4.063-1.854-4.063-4.138s1.825-4.138 4.063-4.138c1.273 0 2.125.542 2.612 1.01l1.778-1.713c-1.142-1.067-2.62-1.713-4.39-1.713-3.623 0-6.553 2.93-6.553 6.553 0 3.623 2.93 6.553 6.553 6.553 3.782 0 6.29-2.66 6.29-6.403 0-.43-.046-.76-.102-1.086h-6.188zm15.042 0h-1.872v-1.87h-1.873v1.87h-1.872v1.873h1.872v1.872h1.873v-1.872H27V14.51z" id="social-gp" fill="#D8D8D8"/></g></svg>