<svg width="31" height="31" viewBox="0 0 31 31" xmlns="http://www.w3.org/2000/svg"><g id="Page-1" fill="none" fill-rule="evenodd"><path d="M15.5 31C24.06 31 31 24.06 31 15.5 31 6.94 24.06 0 15.5 0 6.94 0 0 6.94 0 15.5 0 24.06 6.94 31 15.5 31zm9.193-20.345c-.66.297-1.36.466-2.064.55.746-.423 1.316-1.102 1.58-1.95-.703.382-1.493.68-2.283.848C21.267 9.423 20.302 9 19.293 9c-2.02 0-3.644 1.57-3.644 3.52 0 .256.043.553.086.807-3.03-.127-5.663-1.527-7.463-3.648-.307.508-.483 1.102-.483 1.78 0 1.23.66 2.292 1.625 2.928-.615 0-1.142-.17-1.625-.424v.042c0 1.697 1.23 3.097 2.898 3.437-.308.084-.615.127-.966.127-.22 0-.44-.043-.703-.043.482 1.4 1.8 2.418 3.38 2.418-1.23.934-2.81 1.485-4.522 1.485-.307 0-.57 0-.878-.042 1.624.976 3.512 1.57 5.576 1.57 6.673 0 10.317-5.346 10.317-9.97v-.467c.702-.55 1.317-1.186 1.8-1.865z" id="social-tw" fill="#D8D8D8"/></g></svg>