<svg width="31" height="31" viewBox="0 0 31 31" xmlns="http://www.w3.org/2000/svg"><g id="Page-1" fill="none" fill-rule="evenodd"><path d="M15.5 31C24.06 31 31 24.06 31 15.5 31 6.94 24.06 0 15.5 0 6.94 0 0 6.94 0 15.5 0 24.06 6.94 31 15.5 31zM11.716 6.26c-1 .044-1.68.203-2.278.435-.617.24-1.14.56-1.662 1.083-.522.52-.843 1.044-1.082 1.662-.232.596-.39 1.278-.437 2.277-.116 2.566-.116 5.172 0 7.738.046 1 .205 1.68.437 2.278.24.616.56 1.14 1.082 1.66.522.523 1.045.844 1.662 1.084.597.23 1.28.39 2.278.436 2.566.115 5.172.116 7.738 0 .998-.045 1.68-.204 2.277-.436.618-.24 1.142-.56 1.664-1.083.52-.52.842-1.044 1.082-1.66.232-.6.39-1.28.436-2.28.116-2.564.116-5.172 0-7.737-.045-1-.204-1.68-.436-2.277-.24-.618-.56-1.14-1.082-1.662s-1.046-.843-1.663-1.083c-.596-.232-1.278-.39-2.276-.436-2.565-.12-5.174-.12-7.738 0zm7.66 1.688c.915.04 1.412.194 1.743.323.437.17.75.374 1.078.703.328.328.532.64.702 1.078.13.333.28.83.323 1.744.115 2.514.115 5.07 0 7.583-.042.916-.194 1.413-.323 1.743-.17.438-.374.75-.702 1.08-.328.327-.64.53-1.08.7-.33.13-.827.283-1.742.325-2.514.113-5.07.113-7.584 0-.914-.042-1.41-.196-1.742-.324-.437-.17-.75-.373-1.078-.7-.33-.33-.532-.64-.703-1.08-.13-.33-.28-.827-.323-1.743-.114-2.514-.114-5.07 0-7.583.042-.915.194-1.41.322-1.743.17-.436.373-.748.702-1.077.328-.33.64-.532 1.078-.702.33-.128.828-.28 1.742-.322 2.515-.115 5.07-.114 7.584 0zm2.344 2.63c0 .62-.505 1.125-1.126 1.125-.622 0-1.126-.504-1.126-1.126 0-.622.504-1.126 1.126-1.126.62 0 1.126.505 1.126 1.127zm-6.135.19c-2.66 0-4.82 2.157-4.82 4.818 0 2.66 2.16 4.82 4.82 4.82 2.66-.002 4.818-2.16 4.818-4.82s-2.157-4.82-4.818-4.82zm0 7.946c-1.727 0-3.128-1.4-3.128-3.128 0-1.727 1.4-3.128 3.128-3.128 1.727 0 3.128 1.4 3.128 3.128 0 1.727-1.4 3.128-3.128 3.128z" id="social-inst" fill="#D8D8D8"/></g></svg>