<svg width="296" height="152" viewBox="0 0 296 152" xmlns="http://www.w3.org/2000/svg"><g id="Page-1" fill="none" fill-rule="evenodd"><g id="car-2" fill="#FFF"><path d="M149.874 81.028c-45.01 0-81.495-15.695-81.495-35.055s36.484-35.055 81.494-35.055c45.013 0 81.5 15.696 81.5 35.055 0 19.36-36.487 35.055-81.5 35.055M149.5 0c-49.222 0-89.12 20.482-89.12 45.748s39.898 45.75 89.12 45.75c49.22 0 89.12-20.484 89.12-45.75S198.72 0 149.5 0" id="Fill-1"/><path d="M178.967 27.572c.05-.107.104-.29.104-.42 0-.508-.412-.925-.915-.925l.005-.007-1.238.007c-.1 0-.185-.08-.185-.18V23.87c0-.105.084-.184.185-.184l4.666-.006h1.043l10.99-.008c.5 0 .98.104 1.146.617l14.488 42.284c.016.073.03.163.03.24 0 .45-.356.81-.8.81l.018.006-10.455.008c-.5 0-1.04-.42-1.203-.934L187.89 39.42c-.064-.236-.208-.435-.46-.435-.254 0-.4.18-.457.435l-8.95 27.284c-.17.514-.708.934-1.21.934l-10.422-.01c-.446 0-.812-.364-.812-.814 0-.077.006-.153.03-.228l13.36-39.014z" id="Fill-4"/><path d="M144.166 27.534v-.403c0-.51-.432-.91-.937-.91h-1.385c-.104 0-.187-.082-.187-.186v-2.18c0-.096.083-.182.187-.182h13.831c.502 0 .914.413.914.924v42.112c0 .51-.41.92-.913.92h-10.602c-.504 0-.914-.41-.914-.92V28.45l.006-.916z" id="Fill-6"/><path d="M135.19 67.628l-12.205-.003c-.507 0-1.216-.416-1.584-.928l-12.185-16.743c-.206-.192-.22-.254-.36-.373-.09-.06-.227-.098-.345-.098-.31 0-.5.238-.5.56v.225-.02l.006 16.462c0 .51-.41.92-.913.92H96.82c-.502 0-.912-.41-.912-.92l.01-39.58v-.005c0-.51-.402-.92-.907-.92h.027l-1.44.01c-.1 0-.183-.086-.183-.186v-2.175c0-.103.083-.187.183-.187h3.224l10.283.004c.504 0 .913.414.913.925l-.003 10.914v.797l.003 2.066v-.02.223c0 .32.19.562.502.562.118 0 .255-.04.35-.1.134-.116.144-.18.354-.376l1.686-2.323 8.416-11.734c.372-.515 1.08-.926 1.588-.926h11.686c.443 0 .786.363.786.812 0 .166-.04.322-.123.454l-12.924 18.79c-.14.19-.214.35-.214.57 0 .223.054.35.198.54l15.468 21.428c.142.152.194.318.194.54 0 .45-.35.814-.792.814" id="Fill-8"/><path d="M61.715 138.97H57.57l4.145-11.508 4.14 11.508h-4.14zm0-22.012h-3.738l-11.92 33.33h7.475l2.318-6.466h11.72l2.324 6.466h9.092l-11.927-33.33h-5.345z" id="Fill-10"/><path id="Fill-12" d="M122.82 116.958l-6.87 19.292-6.868-19.292H99.49l-4.547 33.33h7.47l2.727-20.81 7.078 20.81h6.358l7.275-20.908 2.728 20.907h8.38l-4.646-33.33z"/><path id="Fill-14" d="M34.035 150.288h9.092v-33.33h-9.092z"/><path d="M26.763 145.038l-9.39-13.434 11.412-14.645h-9.39L9.088 129.884V116.96H0v33.328h9.09v-15.454l8.888 12.626s2.226 2.828 4.544 2.828h9.597s-1.017.105-5.357-5.25" id="Fill-16"/><path d="M266.546 145.54l-7.576-11.412c7.174-2.326 6.77-8.99 6.77-8.99 0-7.87-9.192-8.18-9.192-8.18h-17.374v33.33h9.188v-28.486h3.237s5.25.305 5.25 4.652c0 0 .704 6.967-7.876 6.967l9.595 14.445s1.613 2.423 5.15 2.423h7.768s-.3 0-.7-.302c-.807-.505-2.125-1.717-4.242-4.447" id="Fill-17"/><path d="M295.532 140.185c-.402-6.462-7.37-8.682-7.37-8.682-9.59-3.334-8.788-6.97-8.788-6.97 0-3.838 6.056-4.038 6.056-4.038 4.35 0 6.868 2.22 6.868 2.22v-5.053s-3.635-2.12-9.694-1.714c0 0-9.293.605-11.816 6.866-.506 1.01-.707 2.226-.707 3.533 0 0-.202 1.62.708 3.64.803 1.915 2.726 4.24 6.77 6.062 0 0 9.388 2.92 9.187 6.764-.195 5.15-6.865 4.04-6.865 4.04-3.94-.605-7.977-2.423-9.092-2.927-.3-.105-.404-.202-.404-.202l.404 1.313 1.008 3.833c4.144 2.528 9.8 2.732 9.8 2.732 14.946.708 13.936-11.417 13.936-11.417" id="Fill-18"/><path d="M218.065 146.55c-5.455 0-9.8-5.756-9.8-12.93 0-7.166 4.345-12.925 9.8-12.925 5.45 0 9.797 5.76 9.797 12.925 0 7.174-4.346 12.93-9.797 12.93m0-31.11c-8.082 0-14.95 4.857-17.676 11.72-.805 2.02-1.21 4.138-1.21 6.46 0 2.33.405 4.446 1.21 6.464 2.726 6.876 9.593 11.718 17.675 11.718 10.4 0 18.883-8.077 18.883-18.182 0-10.1-8.483-18.18-18.883-18.18" id="Fill-19"/><path id="Fill-20" d="M201.602 121.802v-4.844H173.42v4.844h9.496v28.486h9.09v-28.486h8.383z"/><path d="M156.25 146.55c-5.454 0-9.896-5.756-9.896-12.93 0-7.166 4.442-12.925 9.897-12.925 5.355 0 9.8 5.76 9.8 12.925 0 7.174-4.445 12.93-9.8 12.93m0-31.11c-10.5 0-18.987 8.08-18.987 18.18 0 10.105 8.488 18.182 18.988 18.182 8.483 0 15.657-5.35 18.075-12.832.514-1.71.815-3.427.815-5.35 0-1.818-.3-3.634-.815-5.352-2.418-7.475-9.592-12.827-18.074-12.827" id="Fill-21"/></g></g></svg>