<svg width="159" height="135" viewBox="0 0 159 135" xmlns="http://www.w3.org/2000/svg"><g id="Page-1" fill="none" fill-rule="evenodd"><g id="car-1" fill="#FFF"><path id="Fill-4" d="M103.405 62.52l-2.438 4.914h4.876z"/><path d="M135.907 74.803h-8.126l-6.5-11.463v11.463h-5.145V57.88h8.938l5.688 11.738V57.88h5.147v16.923zM79.2 118.52c-22.1 0-41.065-12.825-49.185-31.112 23.163 1.74 49.866 1.858 49.866 1.858 18.792.305 35.578-.57 48.397-1.626-8.18 18.162-27.07 30.88-49.076 30.88zM27.568 63.614v11.19H22.42V57.88h8.668l6.23 12.01V57.88h4.334v16.923h-7.855l-6.23-11.19zm17.876 11.19h5.96V57.88h-5.96v16.923zm13-6.277s-3.25-.274-3.79-4.367v-.82s-.272-4.367 4.333-5.46h12.188v4.368H60.07v2.457h9.208s3.25 1.09 3.25 4.367v.82s.27 3.546-2.98 4.91H54.924V70.71h12.73v-2.184h-9.21zm19.502 0s-3.25-.274-3.792-4.367v-.82s-.27-4.367 4.334-5.46h12.188v4.368H79.57v2.457h9.21s3.25 1.09 3.25 4.367v.82s.27 3.546-2.98 4.91H74.424V70.71h12.73v-2.184h-9.21zm36.836 6.277h-5.416l-1.626-3.002H99.07l-1.353 3.003H92.3l7.584-16.922h6.77l8.127 16.923zM79.2 16.468c22.058 0 40.987 12.775 49.136 31.002-38.79-3.27-79.775-1.85-97.826-.938C38.884 28.81 57.527 16.468 79.2 16.468zm78.882 39.125c-.086-5.01-3.928-5.108-3.928-5.108-2.26-.35-4.552-.676-6.867-.984C139.04 20.966 111.693 0 79.2 0 46.968 0 19.796 20.635 11.318 48.826c-1.876.365-3.598.72-5.368 1.092-4.992.907-5.33 4.422-5.33 4.65C-.51 59.1.167 74.183.62 79.287c.34 5.442 4.764 4.99 4.988 5.102 1.65.356 3.498.683 5.475.987 8.207 28.594 35.584 49.61 68.118 49.61 32.418 0 59.716-20.867 68.027-49.304 4.255-.542 6.62-.923 6.62-.923 4.02-.346 4.105-5.143 4.105-5.186.735-7 .173-23.98.13-23.98z" id="Fill-1"/></g></g></svg>