<svg width="193" height="135" viewBox="0 0 193 135" xmlns="http://www.w3.org/2000/svg"><g id="Page-1" fill="none" fill-rule="evenodd"><g id="car-3" transform="translate(0 -1)" fill="#FFF"><path id="Fill-1" d="M4.988 135.832H9.26v-18.975H4.988z"/><path id="Fill-2" d="M83.327 135.832H87.6v-18.975h-4.273z"/><path id="Fill-3" d="M135.257 135.832h4.272v-18.975h-4.273z"/><path id="Fill-4" d="M182.86 135.832h4.27v-18.975h-4.27z"/><path id="Fill-5" d="M37.444 116.857v15.2l-6.325-15.2h-5.826v18.975h3.328V120.63h.39l5.88 15.202h5.88v-18.975z"/><path id="Fill-6" d="M115.894 116.857v15.2l-6.325-15.2h-5.826v18.975h3.33V120.63h.387l5.883 15.202h5.88v-18.975z"/><path id="Fill-7" d="M60.247 116.857h-3.883v18.975h3.883v-8.1h7.99v-3.275h-7.99v-4.327h7.99v-3.273z"/><path id="Fill-8" d="M163.274 116.857h-8.842v3.64h4.57v15.335h4.272v-15.334h4.77v-3.64z"/><g id="Group-11" transform="translate(0 .832)"><path d="M140.17 72.902L96.06 21.676 52.113 72.76C30.474 66.717 16.21 56.142 16.21 43.143c0-20.618 35.478-39.952 79.766-39.952 44.29 0 80.616 19.334 80.616 39.952 0 13.1-14.49 23.74-36.422 29.758M96.06.167C43.007.167 0 21.852 0 48.597 0 70.25 28.2 88.586 67.095 94.78L96.06 25.598l28.963 69.184c38.9-6.195 67.096-24.53 67.096-46.186 0-26.744-43.006-48.43-96.06-48.43" id="Fill-9"/></g></g></g></svg>