<?xml version="1.0" encoding="UTF-8" standalone="no"?>
<svg width="159px" height="135px" viewBox="0 0 159 135" version="1.1" xmlns="http://www.w3.org/2000/svg" xmlns:xlink="http://www.w3.org/1999/xlink">
    <!-- Generator: Sketch 3.7.2 (28276) - http://www.bohemiancoding.com/sketch -->
    <title>car-1</title>
    <desc>Created with Sketch.</desc>
    <defs></defs>
    <g id="Page-1" stroke="none" stroke-width="1" fill="none" fill-rule="evenodd">
        <g id="car-1" fill="#FFFFFF">
            <polygon id="Fill-4" points="103.4048 62.5211 100.9668 67.4341 105.8428 67.4341"></polygon>
            <path d="M135.9067,74.8032 L127.7807,74.8032 L121.2807,63.3402 L121.2807,74.8032 L116.1347,74.8032 L116.1347,57.8812 L125.0727,57.8812 L130.7607,69.6182 L130.7607,57.8812 L135.9067,57.8812 L135.9067,74.8032 Z M79.2007,118.5212 C57.0997,118.5212 38.1347,105.6952 30.0147,87.4082 C53.1777,89.1492 79.8807,89.2662 79.8807,89.2662 C98.6717,89.5712 115.4577,88.6972 128.2767,87.6402 C120.0967,105.8022 101.2067,118.5212 79.2007,118.5212 L79.2007,118.5212 Z M27.5667,63.6132 L27.5667,74.8032 L22.4207,74.8032 L22.4207,57.8812 L31.0877,57.8812 L37.3177,69.8912 L37.3177,57.8812 L41.6517,57.8812 L41.6517,74.8032 L33.7967,74.8032 L27.5667,63.6132 Z M45.4427,74.8032 L51.4017,74.8032 L51.4017,57.8812 L45.4427,57.8812 L45.4427,74.8032 Z M58.4437,68.5262 C58.4437,68.5262 55.1937,68.2522 54.6517,64.1592 L54.6517,63.3402 C54.6517,63.3402 54.3807,58.9732 58.9857,57.8812 L71.1737,57.8812 L71.1737,62.2482 L60.0687,62.2482 L60.0687,64.7052 L69.2777,64.7052 C69.2777,64.7052 72.5287,65.7962 72.5287,69.0722 L72.5287,69.8912 C72.5287,69.8912 72.7987,73.4382 69.5487,74.8032 L54.9227,74.8032 L54.9227,70.7092 L67.6527,70.7092 L67.6527,68.5262 L58.4437,68.5262 Z M77.9447,68.5262 C77.9447,68.5262 74.6947,68.2522 74.1527,64.1592 L74.1527,63.3402 C74.1527,63.3402 73.8817,58.9732 78.4867,57.8812 L90.6747,57.8812 L90.6747,62.2482 L79.5697,62.2482 L79.5697,64.7052 L88.7787,64.7052 C88.7787,64.7052 92.0287,65.7962 92.0287,69.0722 L92.0287,69.8912 C92.0287,69.8912 92.2997,73.4382 89.0497,74.8032 L74.4237,74.8032 L74.4237,70.7092 L87.1537,70.7092 L87.1537,68.5262 L77.9447,68.5262 Z M114.7807,74.8032 L109.3637,74.8032 L107.7377,71.8012 L99.0707,71.8012 L97.7167,74.8032 L92.2997,74.8032 L99.8837,57.8812 L106.6547,57.8812 L114.7807,74.8032 Z M79.2007,16.4682 C101.2577,16.4682 120.1867,29.2432 128.3357,47.4702 C89.5457,44.2012 48.5607,45.6192 30.5097,46.5322 C38.8837,28.8102 57.5267,16.4682 79.2007,16.4682 L79.2007,16.4682 Z M158.0817,55.5932 C157.9957,50.5822 154.1537,50.4852 154.1537,50.4852 C151.8937,50.1352 149.6017,49.8092 147.2867,49.5012 C139.0407,20.9652 111.6927,0.0002 79.2007,0.0002 C46.9667,0.0002 19.7947,20.6352 11.3167,48.8262 C9.4407,49.1912 7.7187,49.5452 5.9487,49.9182 C0.9577,50.8252 0.6207,54.3402 0.6207,54.5672 C-0.5123,59.1022 0.1657,74.1842 0.6207,79.2872 C0.9607,84.7302 5.3837,84.2772 5.6077,84.3902 C7.2567,84.7462 9.1057,85.0732 11.0827,85.3772 C19.2897,113.9712 46.6667,134.9882 79.2007,134.9882 C111.6177,134.9882 138.9157,114.1202 147.2267,85.6832 C151.4817,85.1412 153.8467,84.7602 153.8467,84.7602 C157.8657,84.4142 157.9517,79.6172 157.9517,79.5742 C158.6867,72.5752 158.1247,55.5932 158.0817,55.5932 L158.0817,55.5932 Z" id="Fill-1"></path>
        </g>
    </g>
</svg>