<?xml version="1.0" encoding="UTF-8" standalone="no"?>
<svg width="193px" height="135px" viewBox="0 0 193 135" version="1.1" xmlns="http://www.w3.org/2000/svg" xmlns:xlink="http://www.w3.org/1999/xlink">
    <!-- Generator: Sketch 3.7.2 (28276) - http://www.bohemiancoding.com/sketch -->
    <title>car-3</title>
    <desc>Created with Sketch.</desc>
    <defs></defs>
    <g id="Page-1" stroke="none" stroke-width="1" fill="none" fill-rule="evenodd">
        <g id="car-3" transform="translate(0.000000, -1.000000)" fill="#FFFFFF">
            <polygon id="Fill-1" points="4.988 135.832 9.26 135.832 9.26 116.857 4.988 116.857"></polygon>
            <polygon id="Fill-2" points="83.327 135.832 87.599 135.832 87.599 116.857 83.327 116.857"></polygon>
            <polygon id="Fill-3" points="135.257 135.832 139.529 135.832 139.529 116.857 135.257 116.857"></polygon>
            <polygon id="Fill-4" points="182.859 135.832 187.131 135.832 187.131 116.857 182.859 116.857"></polygon>
            <polygon id="Fill-5" points="37.4445 116.8573 37.4445 132.0583 31.1195 116.8573 25.2935 116.8573 25.2935 135.8323 28.6225 135.8323 28.6225 120.6303 29.0115 120.6303 34.8925 135.8323 40.7725 135.8323 40.7725 116.8573"></polygon>
            <polygon id="Fill-6" points="115.8939 116.8573 115.8939 132.0583 109.5689 116.8573 103.7439 116.8573 103.7439 135.8323 107.0729 135.8323 107.0729 120.6303 107.4609 120.6303 113.3429 135.8323 119.2229 135.8323 119.2229 116.8573"></polygon>
            <polygon id="Fill-7" points="60.2469 116.8573 59.1919 116.8573 56.3639 116.8573 56.3639 135.8323 60.2469 135.8323 60.2469 127.7313 68.2359 127.7313 68.2359 124.4573 60.2469 124.4573 60.2469 120.1303 68.2359 120.1303 68.2359 116.8573"></polygon>
            <polygon id="Fill-8" points="163.2744 116.8573 159.0024 116.8573 154.4324 116.8573 154.4324 120.4983 159.0024 120.4983 159.0024 135.8323 163.2744 135.8323 163.2744 120.4983 168.0454 120.4983 168.0454 116.8573"></polygon>
            <g id="Group-11" transform="translate(0.000000, 0.832000)">
                <path d="M140.1702,72.9023 L96.0592,21.6763 L52.1142,72.7593 C30.4742,66.7183 16.2102,56.1433 16.2102,43.1443 C16.2102,22.5263 51.6882,3.1923 95.9762,3.1923 C140.2652,3.1923 176.5922,22.5263 176.5922,43.1443 C176.5922,56.2443 162.1012,66.8843 140.1702,72.9023 M96.0592,0.1673 C43.0082,0.1673 0.0002,21.8523 0.0002,48.5963 C0.0002,70.2513 28.1992,88.5873 67.0952,94.7823 L96.0592,25.5983 L125.0232,94.7823 C163.9222,88.5873 192.1192,70.2513 192.1192,48.5963 C192.1192,21.8523 149.1142,0.1673 96.0592,0.1673" id="Fill-9"></path>
            </g>
        </g>
    </g>
</svg>