<?xml version="1.0" encoding="UTF-8" standalone="no"?>
<svg width="296px" height="152px" viewBox="0 0 296 152" version="1.1" xmlns="http://www.w3.org/2000/svg" xmlns:xlink="http://www.w3.org/1999/xlink">
    <!-- Generator: Sketch 3.7.2 (28276) - http://www.bohemiancoding.com/sketch -->
    <title>car-2</title>
    <desc>Created with Sketch.</desc>
    <defs></defs>
    <g id="Page-1" stroke="none" stroke-width="1" fill="none" fill-rule="evenodd">
        <g id="car-2" fill="#FFFFFF">
            <path d="M149.874,81.0276 C104.864,81.0276 68.379,65.3326 68.379,45.9726 C68.379,26.6136 104.864,10.9176 149.874,10.9176 C194.887,10.9176 231.373,26.6136 231.373,45.9726 C231.373,65.3326 194.887,81.0276 149.874,81.0276 M149.5,-0.0004 C100.278,-0.0004 60.379,20.4816 60.379,45.7476 C60.379,71.0136 100.278,91.4976 149.5,91.4976 C198.721,91.4976 238.619,71.0136 238.619,45.7476 C238.619,20.4816 198.721,-0.0004 149.5,-0.0004" id="Fill-1"></path>
            <path d="M178.9668,27.572 C179.0178,27.465 179.0708,27.281 179.0708,27.153 C179.0708,26.644 178.6578,26.227 178.1548,26.227 L178.1598,26.22 L176.9218,26.227 C176.8208,26.227 176.7368,26.148 176.7368,26.046 L176.7368,23.87 C176.7368,23.765 176.8208,23.686 176.9218,23.686 L181.5878,23.68 L182.6308,23.68 L193.6208,23.672 C194.1208,23.672 194.5998,23.776 194.7658,24.289 L209.2538,66.574 C209.2698,66.647 209.2828,66.737 209.2828,66.814 C209.2828,67.264 208.9278,67.624 208.4828,67.624 L208.5018,67.63 L198.0468,67.638 C197.5468,67.638 197.0078,67.218 196.8438,66.704 L187.8888,39.42 C187.8258,39.184 187.6818,38.985 187.4298,38.985 C187.1758,38.985 187.0298,39.164 186.9728,39.42 L178.0218,66.704 C177.8538,67.218 177.3148,67.638 176.8128,67.638 L166.3908,67.628 C165.9438,67.628 165.5778,67.264 165.5778,66.814 C165.5778,66.737 165.5838,66.661 165.6078,66.586 L178.9668,27.572 Z" id="Fill-4"></path>
            <path d="M144.166,27.5344 L144.166,27.1314 L144.166,27.1294 C144.166,26.6194 143.734,26.2214 143.229,26.2214 L141.845,26.2204 C141.741,26.2204 141.658,26.1384 141.658,26.0344 L141.658,23.8554 C141.658,23.7584 141.741,23.6724 141.845,23.6724 L143.989,23.6724 L145.07,23.6724 L145.682,23.6724 L155.677,23.6724 C156.179,23.6724 156.591,24.0854 156.591,24.5964 L156.591,66.7084 C156.591,67.2184 156.179,67.6294 155.677,67.6294 L145.075,67.6294 C144.571,67.6294 144.161,67.2184 144.161,66.7084 L144.161,28.6734 L144.161,28.4504 L144.166,27.5344 Z" id="Fill-6"></path>
            <path d="M135.1899,67.6277 L122.9849,67.6247 C122.4779,67.6247 121.7689,67.2087 121.4009,66.6967 L109.2149,49.9537 C109.0089,49.7617 108.9939,49.6997 108.8539,49.5807 C108.7659,49.5207 108.6279,49.4817 108.5099,49.4817 C108.1989,49.4817 108.0089,49.7197 108.0089,50.0427 L108.0089,50.2667 L108.0089,50.2467 L108.0159,66.7087 C108.0159,67.2187 107.6069,67.6297 107.1029,67.6297 L96.8209,67.6297 C96.3179,67.6297 95.9079,67.2187 95.9079,66.7087 L95.9179,27.1287 L95.9179,27.1247 C95.9179,26.6137 95.5159,26.2037 95.0109,26.2037 L95.0369,26.2037 L93.5969,26.2137 C93.4969,26.2137 93.4139,26.1287 93.4139,26.0287 L93.4139,23.8547 C93.4139,23.7517 93.4969,23.6677 93.5969,23.6677 L95.7429,23.6677 L96.8209,23.6677 L107.1029,23.6717 C107.6069,23.6717 108.0159,24.0857 108.0159,24.5967 L108.0129,35.5107 L108.0129,36.3067 L108.0159,38.3727 L108.0159,38.3527 L108.0159,38.5757 C108.0159,38.8967 108.2049,39.1377 108.5179,39.1377 C108.6359,39.1377 108.7729,39.0977 108.8679,39.0367 C109.0019,38.9217 109.0119,38.8577 109.2219,38.6617 L110.9079,36.3387 L119.3239,24.6057 C119.6959,24.0907 120.4049,23.6797 120.9119,23.6797 L132.5979,23.6797 C133.0409,23.6797 133.3839,24.0427 133.3839,24.4917 C133.3839,24.6577 133.3439,24.8137 133.2609,24.9457 L120.3359,43.7357 C120.1949,43.9257 120.1219,44.0847 120.1219,44.3067 C120.1219,44.5287 120.1759,44.6557 120.3199,44.8447 L135.7879,66.2737 C135.9299,66.4257 135.9819,66.5917 135.9819,66.8137 C135.9819,67.2637 135.6309,67.6277 135.1899,67.6277" id="Fill-8"></path>
            <path d="M61.7148,138.97 L57.5698,138.97 L61.7148,127.462 L65.8548,138.97 L61.7148,138.97 Z M61.7148,116.958 L57.9768,116.958 L46.0568,150.288 L53.5318,150.288 L55.8498,143.822 L61.7148,143.822 L67.5698,143.822 L69.8938,150.288 L78.9858,150.288 L67.0588,116.958 L61.7148,116.958 Z" id="Fill-10"></path>
            <polygon id="Fill-12" points="122.8198 116.9583 115.9508 136.2503 109.0818 116.9583 99.4898 116.9583 94.9428 150.2873 102.4118 150.2873 105.1398 129.4773 112.2178 150.2873 118.5758 150.2873 125.8508 129.3803 128.5778 150.2873 136.9588 150.2873 132.3118 116.9583"></polygon>
            <polygon id="Fill-14" points="34.035 150.288 43.127 150.288 43.127 116.959 34.035 116.959"></polygon>
            <path d="M26.7627,145.0378 L17.3717,131.6038 L28.7847,116.9588 L19.3937,116.9588 L9.0887,129.8848 L9.0887,116.9588 L-0.0003,116.9588 L-0.0003,150.2878 L9.0887,150.2878 L9.0887,134.8338 L17.9777,147.4598 C17.9777,147.4598 20.2037,150.2878 22.5217,150.2878 L32.1187,150.2878 C32.1187,150.2878 31.1027,150.3928 26.7627,145.0378" id="Fill-16"></path>
            <path d="M266.5459,145.5388 L258.9699,134.1278 C266.1439,131.8018 265.7389,125.1388 265.7389,125.1388 C265.7389,117.2668 256.5479,116.9578 256.5479,116.9578 L248.8739,116.9578 L239.1729,116.9578 L239.1729,150.2878 L248.3619,150.2878 L248.3619,121.8018 L251.5989,121.8018 C251.5989,121.8018 256.8489,122.1068 256.8489,126.4538 C256.8489,126.4538 257.5539,133.4208 248.9739,133.4208 L258.5689,147.8648 C258.5689,147.8648 260.1829,150.2878 263.7199,150.2878 L270.7879,150.2878 L271.4889,150.2878 C271.4889,150.2878 271.1889,150.2878 270.7879,149.9858 C269.9809,149.4808 268.6629,148.2688 266.5459,145.5388" id="Fill-17"></path>
            <path d="M295.5322,140.1848 C295.1302,133.7228 288.1612,131.5028 288.1612,131.5028 C278.5712,128.1688 279.3742,124.5318 279.3742,124.5318 C279.3742,120.6948 285.4302,120.4948 285.4302,120.4948 C289.7802,120.4948 292.2982,122.7148 292.2982,122.7148 L292.2982,117.6618 C292.2982,117.6618 288.6632,115.5418 282.6042,115.9478 C282.6042,115.9478 273.3112,116.5528 270.7882,122.8138 C270.2822,123.8248 270.0812,125.0398 270.0812,126.3468 C270.0812,126.3468 269.8782,127.9678 270.7882,129.9858 C271.5912,131.9018 273.5142,134.2268 277.5572,136.0488 C277.5572,136.0488 286.9462,138.9698 286.7452,142.8138 C286.5502,147.9648 279.8802,146.8548 279.8802,146.8548 C275.9402,146.2488 271.9032,144.4308 270.7882,143.9268 C270.4872,143.8218 270.3842,143.7248 270.3842,143.7248 L270.7882,145.0378 L271.7962,148.8708 C275.9402,151.3978 281.5962,151.6018 281.5962,151.6018 C296.5422,152.3098 295.5322,140.1848 295.5322,140.1848" id="Fill-18"></path>
            <path d="M218.0654,146.5496 C212.6104,146.5496 208.2644,140.7936 208.2644,133.6196 C208.2644,126.4536 212.6104,120.6946 218.0654,120.6946 C223.5164,120.6946 227.8624,126.4536 227.8624,133.6196 C227.8624,140.7936 223.5164,146.5496 218.0654,146.5496 M218.0654,115.4406 C209.9834,115.4406 203.1164,120.2966 200.3894,127.1596 C199.5854,129.1806 199.1804,131.2976 199.1804,133.6196 C199.1804,135.9506 199.5854,138.0656 200.3894,140.0836 C203.1164,146.9596 209.9834,151.8016 218.0654,151.8016 C228.4654,151.8016 236.9484,143.7246 236.9484,133.6196 C236.9484,123.5196 228.4654,115.4406 218.0654,115.4406" id="Fill-19"></path>
            <polygon id="Fill-20" points="201.6025 121.802 201.6025 116.958 200.3895 116.958 174.3255 116.958 173.4205 116.958 173.4205 121.802 174.3255 121.802 182.9145 121.802 182.9145 150.288 192.0065 150.288 192.0065 121.802 200.3895 121.802"></polygon>
            <path d="M156.251,146.5496 C150.796,146.5496 146.354,140.7936 146.354,133.6196 C146.354,126.4536 150.796,120.6946 156.251,120.6946 C161.605,120.6946 166.05,126.4536 166.05,133.6196 C166.05,140.7936 161.605,146.5496 156.251,146.5496 M156.251,115.4406 C145.751,115.4406 137.263,123.5196 137.263,133.6196 C137.263,143.7246 145.751,151.8016 156.251,151.8016 C164.733,151.8016 171.907,146.4526 174.325,138.9696 C174.839,137.2596 175.14,135.5426 175.14,133.6196 C175.14,131.8016 174.839,129.9856 174.325,128.2676 C171.907,120.7926 164.733,115.4406 156.251,115.4406" id="Fill-21"></path>
        </g>
    </g>
</svg>