<?xml version="1.0" encoding="UTF-8" standalone="no"?>
<svg width="176px" height="106px" viewBox="0 0 176 106" version="1.1" xmlns="http://www.w3.org/2000/svg" xmlns:xlink="http://www.w3.org/1999/xlink">
    <!-- Generator: Sketch 3.7.2 (28276) - http://www.bohemiancoding.com/sketch -->
    <title>car-4</title>
    <desc>Created with Sketch.</desc>
    <defs></defs>
    <g id="Page-1" stroke="none" stroke-width="1" fill="none" fill-rule="evenodd">
        <g id="car-4" transform="translate(0.000000, -1.000000)" fill="#FFFFFF">
            <polygon id="Fill-1" points="18.1809 81.1148 18.1809 91.1648 5.7649 91.1648 5.7649 81.1148 -0.0001 81.1148 -0.0001 106.5378 5.7649 106.5378 5.7649 96.0428 18.1809 96.0428 18.1809 106.5378 23.7979 106.5378 23.7979 81.1148"></polygon>
            <polygon id="Fill-2" points="170.132 106.538 175.749 106.538 175.749 81.115 170.132 81.115"></polygon>
            <g id="Group-17" transform="translate(22.000000, 0.538000)">
                <path d="M108.5176,99.0529 C108.5176,99.0529 108.5176,101.1219 106.7436,101.1219 L96.3976,101.1219 L96.3976,85.4539 L106.7436,85.4539 C108.5176,85.4539 108.5176,87.5239 108.5176,87.5239 L108.5176,99.0529 Z M90.7806,105.9999 L108.9616,105.9999 C113.8386,105.9999 114.2826,100.9739 114.2826,100.9739 L114.2826,85.6019 C114.2826,85.6019 113.8386,80.5769 108.9616,80.5769 L90.7806,80.5769 L90.7806,105.9999 Z" id="Fill-10"></path>
                <path d="M137.4888,93.8794 L137.4888,85.4544 L126.6988,85.4544 C126.6988,85.4544 124.7768,85.4544 124.7768,87.8194 L124.7768,93.8794 L137.4888,93.8794 Z M143.2538,80.5764 L143.2538,106.0004 L137.4888,106.0004 L137.4888,98.6094 L124.7768,98.6094 L124.7768,106.0004 L119.1608,106.0004 L119.1608,87.0804 C119.1608,80.2804 125.3678,80.5764 125.3678,80.5764 L143.2538,80.5764 Z" id="Fill-12"></path>
                <polygon id="Fill-7" points="31.8036 80.5764 24.7086 80.5764 17.9096 91.3664 11.1096 80.5764 4.1626 80.5764 15.2486 96.9834 15.2486 106.0004 20.8656 106.0004 20.8656 96.8354"></polygon>
                <path d="M51.6101,99.0529 C51.6101,100.6789 51.3151,101.1219 49.8361,101.1219 L39.6371,101.1219 L39.6371,80.5769 L34.0201,80.5769 L34.0201,105.9999 L52.4971,105.9999 C52.4971,105.9999 57.2271,105.7049 57.2271,100.3829 L57.2271,80.5769 L51.6101,80.5769 L51.6101,99.0529 Z" id="Fill-3"></path>
                <path d="M79.99,106 L85.755,106 L85.755,86.193 C85.755,80.872 80.877,80.576 80.877,80.576 L62.4,80.576 L62.4,106 L68.165,106 L68.165,85.454 L78.216,85.454 C79.694,85.454 79.99,85.898 79.99,87.524 L79.99,106 Z" id="Fill-5"></path>
                <path d="M125.6638,33.4246 C125.6638,27.2166 121.3778,21.5996 113.8388,17.0176 C112.8038,16.2786 111.9178,16.7216 111.4738,17.3126 C111.1778,17.7566 100.2398,43.3276 87.3808,57.2216 C85.9028,58.8476 87.5288,59.1436 89.5978,58.7006 C110.8828,54.4136 125.6638,44.6576 125.6638,33.4246 M68.9048,37.8586 C63.2878,38.8936 57.8188,40.8146 53.5318,42.4406 C39.6378,47.3186 33.1338,52.4926 31.8038,53.6746 C30.0298,55.1526 31.3598,55.8916 32.9858,56.3356 C42.4458,59.1436 56.7838,61.2126 65.9478,60.9176 C72.5998,60.6216 76.2948,53.3786 77.9208,50.2746 C84.7198,35.6416 72.3038,37.2676 68.9048,37.8586 M20.2738,49.5356 C20.5698,48.9446 31.5078,23.3736 44.3678,9.4786 C45.9928,8.0006 44.2198,7.7056 42.1508,8.1486 C20.8658,12.2876 6.0838,22.0426 6.0838,33.2766 C6.0838,39.4846 10.5188,45.2496 17.9098,49.8316 C18.9438,50.4226 19.9788,49.9796 20.2738,49.5356 M62.8438,28.8426 C68.4608,27.8076 73.9298,25.8866 78.2168,24.2606 C92.1108,19.3826 98.6138,14.3566 99.9448,13.1746 C101.7188,11.5486 100.3878,10.9576 98.7618,10.3656 C89.3018,7.5576 74.9648,5.4876 65.7998,5.9316 C59.1488,6.0796 55.4538,13.3226 53.9758,16.4256 C47.0278,31.0596 59.4438,29.5816 62.8438,28.8426 M131.1328,33.4246 C131.1328,51.4576 101.8658,66.2386 65.9478,66.2386 C29.8818,66.2386 0.7628,51.4576 0.7628,33.4246 C0.7628,15.2436 29.8818,0.4626 65.9478,0.4626 C101.8658,0.4626 131.1328,15.2436 131.1328,33.4246" id="Fill-15"></path>
            </g>
        </g>
    </g>
</svg>