<?xml version="1.0" encoding="UTF-8"?>
<svg width="31px" height="31px" viewBox="0 0 31 31" version="1.1" xmlns="http://www.w3.org/2000/svg" xmlns:xlink="http://www.w3.org/1999/xlink">
    <!-- Generator: Sketch 39 (31667) - http://www.bohemiancoding.com/sketch -->
    <title>social-fb</title>
    <desc>Created with Sketch.</desc>
    <defs></defs>
    <g id="Page-1" stroke="none" stroke-width="1" fill="none" fill-rule="evenodd">
        <path d="M15.5,31 C24.0604136,31 31,24.0604136 31,15.5 C31,6.93958638 24.0604136,0 15.5,0 C6.93958638,0 0,6.93958638 0,15.5 C0,24.0604136 6.93958638,31 15.5,31 Z M11,12.6054054 L12.7944444,12.6054054 L12.7944444,10.9054054 C12.7944444,10.1702703 12.7944444,8.97567568 13.3611111,8.28648649 C13.975,7.50540541 14.7777778,7 16.1944444,7 C18.4611111,7 19.4527778,7.32162162 19.4527778,7.32162162 L18.9805556,9.94054054 C18.9805556,9.94054054 18.225,9.71081081 17.5166667,9.71081081 C16.8083333,9.71081081 16.1944444,9.94054054 16.1944444,10.6297297 L16.1944444,12.6054054 L19.075,12.6054054 L18.8861111,15.1324324 L16.1944444,15.1324324 L16.1944444,24 L12.7944444,24 L12.7944444,15.1324324 L11,15.1324324 L11,12.6054054 Z" id="social-fb" fill="#D8D8D8"></path>
    </g>
</svg>