<?xml version="1.0" encoding="UTF-8"?>
<svg width="31px" height="31px" viewBox="0 0 31 31" version="1.1" xmlns="http://www.w3.org/2000/svg" xmlns:xlink="http://www.w3.org/1999/xlink">
    <!-- Generator: Sketch 39 (31667) - http://www.bohemiancoding.com/sketch -->
    <title>social-inst</title>
    <desc>Created with Sketch.</desc>
    <defs></defs>
    <g id="Page-1" stroke="none" stroke-width="1" fill="none" fill-rule="evenodd">
        <path d="M15.5,31 C24.0604136,31 31,24.0604136 31,15.5 C31,6.93958638 24.0604136,0 15.5,0 C6.93958638,0 0,6.93958638 0,15.5 C0,24.0604136 6.93958638,31 15.5,31 Z M11.7157395,6.25931882 C10.7170001,6.30449087 10.0350479,6.46303018 9.43790255,6.69501051 C8.82123123,6.93427665 8.29781833,7.25601822 7.77615402,7.77768252 C7.25419828,8.29876396 6.93333102,8.82246829 6.69377345,9.43972248 C6.46179312,10.0357021 6.3032538,10.7182372 6.25720745,11.7169766 C6.14092586,14.282749 6.14092586,16.8893219 6.25720745,19.4548028 C6.3032538,20.4541251 6.46179312,21.1354945 6.69377345,21.7326398 C6.93333102,22.3493112 7.25419828,22.8730155 7.77615402,23.3943884 C8.29781833,23.9160527 8.82123123,24.2372114 9.43790255,24.4773518 C10.0350479,24.7084578 10.7170001,24.8678714 11.7157395,24.9133349 C14.2815119,25.0284508 16.8877934,25.0293251 19.4535658,24.9133349 C20.4523052,24.8678714 21.1342574,24.7087493 21.7314028,24.4773518 C22.3480741,24.2372114 22.8720699,23.9160527 23.3937342,23.3943884 C23.9153985,22.8730155 24.2359743,22.3496026 24.4755319,21.7326398 C24.7075122,21.1352031 24.8666344,20.4541251 24.9120979,19.4548028 C25.0283795,16.8896133 25.0283795,14.2824575 24.9120979,11.7169766 C24.8666344,10.7182372 24.7075122,10.0357021 24.4755319,9.43972248 C24.2359743,8.82246829 23.9153985,8.29905539 23.3937342,7.77768252 C22.8720699,7.25601822 22.3480741,6.93456809 21.7314028,6.69501051 C21.1342574,6.46303018 20.4523052,6.30449087 19.4535658,6.25931882 C16.8889591,6.14012289 14.2803462,6.14012289 11.7157395,6.25931882 Z M19.3763361,7.94787914 C20.2914344,7.98926257 20.788327,8.14226467 21.1191029,8.27107787 C21.5571261,8.44098306 21.8695418,8.64440299 22.1976949,8.97313893 C22.5261394,9.30129201 22.7295593,9.61399916 22.9000474,10.0514395 C23.0285691,10.3825069 23.1806969,10.8796908 23.2226632,11.7942062 C23.3377791,14.3075207 23.3377791,16.8636758 23.2226632,19.3772818 C23.1806969,20.2926715 23.0285691,20.789564 22.9000474,21.1197571 C22.7295593,21.5583632 22.5261394,21.8710703 22.1976949,22.1995148 C21.8695418,22.5273765 21.5571261,22.7313793 21.1191029,22.9012844 C20.788327,23.0292233 20.2914344,23.1825169 19.3763361,23.2247746 C16.8618559,23.337559 14.3068665,23.3384333 11.7923863,23.2247746 C10.8778709,23.1825169 10.3809784,23.0292233 10.0502024,22.9012844 C9.61276209,22.7313793 9.29976351,22.5273765 8.97161044,22.1995148 C8.64316593,21.8707789 8.44032886,21.5586546 8.26925793,21.1197571 C8.14073617,20.789564 7.98860837,20.2926715 7.94664208,19.3772818 C7.83298337,16.863093 7.83269194,14.3081036 7.94664208,11.7942062 C7.98860837,10.8793994 8.14073617,10.3827983 8.26925793,10.0514395 C8.44032886,9.61399916 8.64316593,9.30158344 8.97161044,8.97313893 C9.29976351,8.64411156 9.61276209,8.44098306 10.0502024,8.27107787 C10.3809784,8.14197324 10.8778709,7.98926257 11.7923863,7.94787914 C14.3068665,7.83334614 16.8618559,7.83422044 19.3763361,7.94787914 Z M21.7197455,10.5768924 C21.7197455,11.1991009 21.2152757,11.7029878 20.59365,11.7029878 C19.9720243,11.7029878 19.4681374,11.1991009 19.4681374,10.5771838 C19.4681374,9.95497527 19.9720243,9.45079692 20.59365,9.45079692 C21.2152757,9.45050549 21.7197455,9.95497527 21.7197455,10.5768924 Z M15.5845069,10.7674893 C12.9237276,10.7674893 10.7659608,12.9249646 10.7659608,15.5860354 C10.7659608,18.2468148 12.9237276,20.4045816 15.5845069,20.4045816 C18.2461606,20.4042902 20.4033445,18.2471063 20.4033445,15.5860354 C20.4033445,12.9249646 18.2461606,10.7674893 15.5845069,10.7674893 Z M15.5845069,18.7142727 C13.8577689,18.7142727 12.4565611,17.3136477 12.4565611,15.5860354 C12.4565611,13.8587146 13.8577689,12.4583811 15.5845069,12.4583811 C17.3121192,12.4580896 18.7127442,13.859006 18.7127442,15.5860354 C18.7127442,17.3133563 17.3121192,18.7142727 15.5845069,18.7142727 Z" id="social-inst" fill="#D8D8D8"></path>
    </g>
</svg>