<?xml version="1.0" encoding="UTF-8"?>
<svg width="31px" height="31px" viewBox="0 0 31 31" version="1.1" xmlns="http://www.w3.org/2000/svg" xmlns:xlink="http://www.w3.org/1999/xlink">
    <!-- Generator: Sketch 39 (31667) - http://www.bohemiancoding.com/sketch -->
    <title>social-tw</title>
    <desc>Created with Sketch.</desc>
    <defs></defs>
    <g id="Page-1" stroke="none" stroke-width="1" fill="none" fill-rule="evenodd">
        <path d="M15.5,31 C24.0604136,31 31,24.0604136 31,15.5 C31,6.93958638 24.0604136,0 15.5,0 C6.93958638,0 0,6.93958638 0,15.5 C0,24.0604136 6.93958638,31 15.5,31 Z M24.6925951,10.6547152 C24.0340585,10.9516848 23.3316195,11.1213818 22.6291805,11.2062303 C23.375522,10.7819879 23.9462537,10.1032 24.2096683,9.25471515 C23.5072293,9.63653333 22.7169854,9.93350303 21.9267415,10.1032 C21.2682049,9.42441212 20.3023512,9.0001697 19.2925951,9.0001697 C17.2730829,9.0001697 15.6486927,10.5698667 15.6486927,12.5213818 C15.6486927,12.7759273 15.6925951,13.072897 15.7364976,13.3274424 C12.7072293,13.2001697 10.0730829,11.8001697 8.27308293,9.67895758 C7.96576585,10.1880485 7.7901561,10.7819879 7.7901561,11.4607758 C7.7901561,12.6910788 8.44869268,13.7516848 9.41454634,14.3880485 C8.7999122,14.3880485 8.27308293,14.2183515 7.7901561,13.9638061 L7.7901561,14.0062303 C7.7901561,15.7032 9.01942439,17.1032 10.6877171,17.4425939 C10.3804,17.5274424 10.0730829,17.5698667 9.72186341,17.5698667 C9.50235122,17.5698667 9.28283902,17.5274424 9.01942439,17.5274424 C9.50235122,18.9274424 10.8194244,19.9452 12.3999122,19.9452 C11.1706439,20.8789576 9.5901561,21.4300485 7.87796098,21.4300485 C7.5706439,21.4300485 7.30722927,21.4300485 6.9999122,21.3880485 C8.62430244,22.3638061 10.5121073,22.9577455 12.575522,22.9577455 C19.2486927,22.9577455 22.8925951,17.6118667 22.8925951,12.9880485 L22.8925951,12.5213818 C23.5950341,11.9698667 24.2096683,11.333503 24.6925951,10.6547152 Z" id="social-tw" fill="#D8D8D8"></path>
    </g>
</svg>