<?xml version="1.0" encoding="UTF-8"?>
<svg width="31px" height="31px" viewBox="0 0 31 31" version="1.1" xmlns="http://www.w3.org/2000/svg" xmlns:xlink="http://www.w3.org/1999/xlink">
    <!-- Generator: Sketch 39 (31667) - http://www.bohemiancoding.com/sketch -->
    <title>social-gp</title>
    <desc>Created with Sketch.</desc>
    <defs></defs>
    <g id="Page-1" stroke="none" stroke-width="1" fill="none" fill-rule="evenodd">
        <path d="M15.5,31 C24.0604136,31 31,24.0604136 31,15.5 C31,6.93958638 24.0604136,0 15.5,0 C6.93958638,0 0,6.93958638 0,15.5 C0,24.0604136 6.93958638,31 15.5,31 Z M11.9578081,14.510831 L11.9578081,16.7575817 L15.6743082,16.7575817 C15.5245248,17.7218122 14.5509328,19.584743 11.9578081,19.584743 C9.72041881,19.584743 7.89493386,17.7311737 7.89493386,15.4469771 C7.89493386,13.1627805 9.72041881,11.3092112 11.9578081,11.3092112 C13.2309668,11.3092112 14.0828598,11.852176 14.5696558,12.320249 L16.3483334,10.6071016 C15.2062351,9.53989502 13.7271242,8.89395419 11.9578081,8.89395419 C8.33492254,8.89395419 5.40478516,11.8240916 5.40478516,15.4469771 C5.40478516,19.0698626 8.33492254,22 11.9578081,22 C15.7398384,22 18.24871,19.341345 18.24871,15.5967605 C18.24871,15.1661333 18.2019027,14.8384821 18.145734,14.510831 L11.9578081,14.510831 Z M27,14.510831 L25.1277077,14.510831 L25.1277077,12.6385387 L23.2554155,12.6385387 L23.2554155,14.510831 L21.3831232,14.510831 L21.3831232,16.3831232 L23.2554155,16.3831232 L23.2554155,18.2554155 L25.1277077,18.2554155 L25.1277077,16.3831232 L27,16.3831232 L27,14.510831 Z" id="social-gp" fill="#D8D8D8"></path>
    </g>
</svg>